<?xml version="1.0" encoding="UTF-8" standalone="no"?>
<svg
   version="1.0"
   width="894.40924pt"
   height="544.24664pt"
   viewBox="0 0 894.40924 544.24664"
   preserveAspectRatio="xMidYMid"
   id="svg10"
   sodipodi:docname="logo.svg"
   inkscape:version="1.3.2 (091e20e, 2023-11-25, custom)"
   xmlns:inkscape="http://www.inkscape.org/namespaces/inkscape"
   xmlns:sodipodi="http://sodipodi.sourceforge.net/DTD/sodipodi-0.dtd"
   xmlns="http://www.w3.org/2000/svg"
   xmlns:svg="http://www.w3.org/2000/svg">
  <defs
     id="defs10" />
  <sodipodi:namedview
     id="namedview10"
     pagecolor="#ffffff"
     bordercolor="#000000"
     borderopacity="0.25"
     inkscape:showpageshadow="2"
     inkscape:pageopacity="0.0"
     inkscape:pagecheckerboard="0"
     inkscape:deskcolor="#d1d1d1"
     inkscape:document-units="pt"
     inkscape:zoom="0.5150831"
     inkscape:cx="447.50061"
     inkscape:cy="352.37033"
     inkscape:window-width="1920"
     inkscape:window-height="991"
     inkscape:window-x="-9"
     inkscape:window-y="-9"
     inkscape:window-maximized="1"
     inkscape:current-layer="svg10" />
  <metadata
     id="metadata1">
Created by potrace 1.15, written by Peter Selinger 2001-2017
</metadata>
  <g
     transform="matrix(0.06990412,0,0,-0.06806591,-0.0813437,544.45703)"
     fill="#000000"
     stroke="none"
     id="g10">
    <path
       d="m 443,7990 c -45,-18 -58,-56 -62,-180 -5,-167 29,-330 79,-375 25,-23 26,-42 2,-49 -10,-4 -85,3 -166,14 -194,26 -236,26 -271,-2 -25,-19 -27,-25 -21,-67 8,-60 101,-250 160,-328 131,-172 320,-322 516,-409 166,-73 323,-91 670,-78 129,5 323,9 430,9 171,0 199,-2 223,-18 15,-9 27,-25 27,-34 0,-29 -92,-105 -231,-192 -74,-46 -170,-109 -214,-141 -106,-76 -130,-87 -211,-100 -38,-6 -77,-18 -86,-27 -36,-32 -14,-90 42,-113 68,-28 85,-115 84,-425 -1,-394 -53,-687 -152,-849 -132,-218 -482,-530 -739,-660 -40,-20 -112,-47 -160,-61 -98,-29 -152,-53 -167,-77 -39,-62 147,-168 295,-168 32,0 80,5 108,11 57,12 91,1 91,-31 0,-39 -135,-127 -293,-189 -51,-20 -94,-40 -97,-46 -3,-6 24,-13 65,-18 97,-11 147,-36 185,-91 58,-85 144,-320 176,-482 23,-112 25,-383 5,-703 -8,-136 -10,-272 -6,-345 l 7,-121 42,-40 c 47,-45 131,-97 292,-178 191,-98 228,-145 264,-339 12,-64 30,-130 40,-146 35,-57 63,-67 315,-113 119,-22 222,-53 344,-104 57,-24 74,-27 145,-23 182,10 300,134 336,353 5,28 5,66 1,85 -5,28 -12,36 -36,40 -37,6 -57,42 -85,145 -12,44 -32,104 -45,133 -40,88 -145,238 -268,385 -114,137 -221,285 -246,341 -37,88 -53,192 -58,391 -10,383 59,806 191,1180 48,136 53,164 34,183 -51,51 -185,-43 -251,-175 -73,-144 -152,-443 -198,-743 -29,-191 -32,-470 -6,-575 79,-317 198,-528 427,-755 114,-113 170,-182 170,-211 0,-30 -37,-55 -118,-79 -96,-28 -148,-54 -162,-81 -8,-14 -9,-49 -5,-104 7,-79 6,-83 -16,-99 -49,-34 -157,-10 -229,51 -47,41 -90,121 -90,169 0,43 -50,138 -113,214 -89,108 -191,180 -254,180 -19,0 -41,8 -52,19 -37,37 -38,80 -33,896 4,651 -4,718 -134,1063 -58,154 -71,199 -61,208 6,6 66,56 132,111 326,272 488,519 581,884 47,187 56,283 63,674 l 6,370 156,90 c 190,109 239,147 368,280 145,151 256,351 249,447 -6,80 -51,74 -163,-19 -112,-93 -129,-94 -286,-16 -112,56 -116,57 -199,57 -73,0 -106,-6 -240,-47 -212,-66 -289,-75 -424,-53 -187,30 -352,89 -492,175 -186,115 -280,241 -211,285 12,9 63,20 113,26 185,21 354,109 354,185 0,30 -56,79 -151,131 -134,73 -219,170 -219,250 v 37 l 43,-5 c 96,-11 423,-174 667,-333 237,-154 353,-195 604,-210 155,-10 294,-44 423,-104 132,-61 193,-75 293,-68 106,8 216,46 421,142 363,172 407,180 939,179 395,0 572,-8 1008,-44 472,-40 551,-31 1217,129 419,101 645,130 870,111 399,-32 734,-167 1495,-600 474,-270 451,-265 1175,-280 666,-14 940,-31 1004,-64 101,-52 201,-254 221,-444 17,-155 39,-262 71,-337 39,-92 47,-153 24,-188 -30,-47 -45,-119 -60,-290 -17,-187 -38,-299 -85,-439 -37,-110 -120,-287 -189,-402 -82,-135 -126,-274 -172,-536 -30,-177 -52,-245 -92,-289 -55,-60 -290,-134 -425,-133 -73,0 -91,4 -145,31 -36,17 -102,67 -156,116 -95,86 -134,104 -145,68 -3,-10 -8,-51 -12,-91 -4,-47 -13,-81 -25,-95 -17,-21 -19,-21 -35,-5 -23,22 -33,150 -21,267 5,47 7,124 5,171 -4,106 -34,175 -136,307 -193,251 -236,344 -282,610 -31,178 -52,236 -89,241 -43,6 -66,-7 -177,-99 -60,-50 -171,-139 -246,-196 -75,-57 -156,-127 -179,-156 -136,-171 -211,-387 -278,-797 -38,-239 -43,-284 -42,-397 0,-116 19,-191 87,-356 105,-253 130,-366 144,-667 15,-323 28,-466 55,-627 54,-320 150,-627 274,-882 43,-90 51,-135 25,-145 -70,-27 -429,54 -531,121 -47,30 -73,80 -73,141 0,107 -225,1047 -304,1270 -48,134 -181,356 -256,426 -55,52 -83,57 -158,31 -138,-48 -305,133 -379,412 -21,81 -26,122 -27,238 -1,131 1,143 24,190 27,53 176,209 211,220 25,8 54,-16 80,-67 35,-68 42,-165 33,-438 -10,-325 -8,-418 11,-447 20,-30 31,-29 49,6 36,69 51,198 71,596 16,325 28,462 46,558 10,50 16,60 43,74 132,68 496,409 496,464 0,24 -22,39 -56,39 -52,0 -199,-82 -338,-188 -285,-217 -430,-305 -523,-317 -123,-15 -175,-49 -224,-148 -95,-188 -114,-690 -38,-992 11,-44 43,-132 71,-195 91,-203 90,-199 98,-665 5,-248 12,-433 20,-469 6,-32 27,-87 46,-123 18,-35 50,-117 70,-181 48,-155 123,-300 263,-507 166,-247 198,-325 149,-359 -32,-23 -53,-20 -178,19 -154,48 -201,47 -311,-6 -99,-48 -138,-48 -203,0 -23,17 -54,38 -70,47 -29,16 -31,16 -53,-10 -28,-32 -53,-115 -53,-173 0,-35 6,-50 33,-78 47,-51 101,-62 224,-47 199,25 225,16 263,-90 29,-82 120,-176 195,-202 142,-49 469,-14 505,54 15,27 12,180 -5,292 -27,182 -95,313 -260,503 -105,121 -200,256 -248,351 -19,39 -51,129 -71,200 -19,71 -47,163 -61,204 -38,111 -55,249 -55,460 0,281 20,430 62,469 83,78 211,2 301,-178 94,-188 209,-615 283,-1056 12,-67 17,-162 18,-286 1,-172 3,-189 21,-209 33,-36 91,-60 232,-96 74,-19 146,-40 161,-48 60,-32 87,-78 117,-206 64,-269 231,-320 509,-152 228,137 220,258 -49,732 -199,351 -288,577 -348,889 -20,105 -22,140 -19,376 2,143 4,330 5,416 l 2,156 -67,134 c -113,224 -144,392 -135,723 6,205 19,315 62,533 53,264 110,348 339,507 124,87 155,102 171,84 20,-20 191,-336 261,-483 109,-226 141,-349 154,-605 5,-91 13,-179 18,-195 37,-119 119,-200 317,-311 l 70,-39 135,1 c 119,0 155,5 299,38 311,71 516,144 553,196 30,43 48,138 63,330 20,263 56,384 174,600 79,143 127,254 145,329 21,91 68,163 176,271 99,99 226,192 322,234 31,14 148,48 261,75 546,135 985,321 1060,449 13,22 16,37 10,43 -26,26 -165,31 -558,23 -664,-15 -888,-12 -969,10 -80,22 -138,71 -156,133 -6,21 -15,103 -19,183 -11,199 -45,283 -165,409 -141,147 -317,236 -519,261 -145,17 -472,39 -842,55 -666,29 -662,28 -1240,350 -721,402 -977,495 -1370,495 -294,0 -642,-56 -937,-149 -290,-92 -324,-94 -1468,-86 -1298,10 -1270,12 -1690,-168 -298,-127 -334,-133 -426,-61 -142,112 -460,216 -653,213 -106,-1 -189,31 -551,213 -539,272 -700,333 -787,298 z M 11336,5529 c 62,-24 117,-70 108,-92 -7,-20 -85,-37 -127,-27 -46,10 -93,37 -111,62 -19,27 -21,74 -3,82 18,8 73,-3 133,-25 z"
       id="path1" />
    <path
       d="m 7599,6517 c -48,-32 -61,-62 -55,-125 17,-191 271,-479 521,-593 36,-16 131,-45 212,-64 86,-21 183,-52 233,-75 47,-21 105,-44 130,-50 154,-41 444,-61 595,-41 192,26 325,86 325,148 0,35 -54,54 -190,64 -220,18 -453,78 -601,155 -72,38 -90,61 -64,80 24,18 243,88 400,129 106,28 168,38 255,42 112,5 118,4 224,-31 119,-40 194,-46 221,-20 21,21 11,50 -32,95 -49,51 -123,70 -294,77 -212,7 -430,-19 -731,-89 -283,-66 -323,-64 -425,22 -205,171 -341,253 -473,283 -36,9 -99,16 -141,16 -63,0 -82,-4 -110,-23 z"
       id="path2" />
    <path
       d="m 4664,6023 c -82,-108 -214,-424 -214,-514 0,-59 18,-52 72,27 78,116 196,390 205,481 7,69 -12,71 -63,6 z"
       id="path3" />
    <path
       d="m 4842,5548 c -46,-67 -95,-171 -187,-395 -85,-206 -98,-253 -71,-253 30,0 91,108 237,418 61,129 109,242 107,251 -2,9 -15,17 -30,19 -21,3 -32,-5 -56,-40 z"
       id="path4" />
    <path
       d="m 9511,5250 c -92,-133 -124,-207 -124,-289 -1,-173 149,-311 337,-311 144,1 216,87 216,260 0,137 -50,209 -240,345 -65,47 -120,85 -122,85 -3,0 -33,-40 -67,-90 z"
       id="path5" />
    <path
       d="m 4915,5011 c -41,-82 -66,-187 -71,-306 -5,-100 -4,-113 16,-143 39,-62 57,-28 89,166 11,64 23,154 27,198 11,139 -15,175 -61,85 z"
       id="path6" />
    <path
       d="m 5135,4786 c -51,-122 -64,-305 -27,-388 24,-56 39,-66 52,-36 14,34 30,158 30,230 -1,62 -24,215 -34,226 -3,3 -13,-12 -21,-32 z"
       id="path7" />
    <path
       d="m 3974,4526 c -61,-63 -111,-155 -147,-276 -35,-114 -91,-196 -188,-277 -109,-89 -166,-157 -191,-226 -41,-112 -75,-129 -167,-83 -74,38 -111,73 -111,106 0,16 20,70 45,122 51,108 75,212 75,331 0,103 -7,112 -75,97 -132,-29 -337,-156 -422,-260 -31,-37 -73,-78 -95,-90 -36,-20 -41,-21 -63,-6 -23,15 -28,29 -40,116 -9,59 -29,88 -70,106 -121,50 -379,-45 -425,-156 -11,-27 -10,-33 6,-52 18,-19 26,-20 116,-15 135,8 138,6 149,-144 14,-184 34,-225 109,-223 47,2 103,33 230,129 115,88 129,95 175,95 32,0 38,-4 52,-37 21,-50 7,-148 -49,-356 -27,-102 -41,-175 -42,-222 -1,-68 0,-70 24,-73 67,-8 230,160 230,237 0,42 51,81 204,155 84,41 183,93 222,116 38,24 105,65 148,91 44,27 83,49 88,49 4,0 -5,-19 -22,-42 -102,-140 -85,-442 46,-835 139,-416 360,-803 639,-1123 114,-130 129,-153 121,-183 -3,-13 -25,-37 -48,-52 -85,-55 -128,-113 -128,-173 0,-35 -34,-82 -60,-82 -34,0 -44,26 -31,83 23,105 -26,177 -191,278 -125,78 -150,106 -167,192 -57,286 -626,1066 -874,1199 -36,19 -99,23 -128,8 -53,-29 -6,-102 185,-290 81,-80 177,-181 213,-225 93,-115 220,-309 303,-465 142,-264 230,-392 328,-478 75,-65 96,-116 106,-254 9,-138 29,-179 106,-218 80,-40 296,-77 506,-87 170,-7 255,6 314,48 61,44 56,71 -40,214 -69,104 -97,156 -145,265 -47,110 -113,208 -256,385 -53,66 -123,158 -156,205 -211,303 -413,719 -478,984 -25,99 -27,122 -22,235 8,191 71,375 158,462 71,71 117,49 159,-77 34,-101 47,-102 293,-34 201,56 315,73 492,73 269,0 436,-58 462,-161 9,-36 -31,-183 -72,-265 -43,-88 -114,-184 -156,-214 -17,-12 -49,-25 -70,-28 -60,-10 -65,-24 -30,-92 16,-33 32,-76 36,-95 12,-64 31,-73 171,-77 183,-5 340,27 397,80 31,28 31,30 13,44 -16,12 -52,15 -193,12 -233,-3 -235,1 -88,153 110,114 195,218 227,277 33,61 50,213 52,463 0,155 -2,183 -22,245 -12,39 -35,91 -52,117 -55,87 -177,166 -293,190 -102,22 -130,-28 -90,-153 24,-73 96,-149 142,-149 63,0 98,-65 71,-134 -26,-69 -115,-82 -463,-67 -482,20 -644,58 -762,176 -61,60 -90,119 -117,234 -10,47 -29,118 -41,156 -20,63 -25,70 -51,73 -23,3 -38,-6 -82,-52 z"
       id="path8" />
    <path
       d="m 5784,2837 c -22,-13 -65,-43 -94,-66 -63,-50 -111,-76 -160,-86 -54,-11 -80,-31 -80,-64 0,-42 28,-61 88,-61 102,0 216,65 288,163 37,49 44,67 42,96 -4,45 -27,50 -84,18 z"
       id="path9" />
    <path
       d="m 5849,2375 c -3,-2 -77,-9 -164,-15 -167,-12 -219,-26 -230,-61 -10,-30 19,-66 74,-93 55,-28 98,-75 107,-114 3,-15 7,-37 10,-49 7,-38 53,-81 122,-115 61,-30 75,-33 173,-35 85,-1 115,-6 147,-22 61,-31 180,-166 250,-284 108,-181 144,-279 248,-661 21,-76 45,-147 53,-156 28,-32 58,-34 86,-6 22,23 25,33 25,104 0,167 -109,480 -267,765 -90,162 -157,253 -287,387 -120,124 -163,183 -196,272 -16,44 -28,59 -54,72 -32,15 -87,22 -97,11 z"
       id="path10" />
    <rect
       width="138.82007"
       height="1000.4922"
       x="-11543.846"
       y="-7480.0298"
       fill="#ed5144"
       id="rect5"
       style="stroke-width:65.8806"
       transform="scale(-1)" />
  </g>
  <path
     fill="#0a3586"
     d="M 785.34255,120.77892 V 42.352275 H 602.8257 v 78.426645 c 0,10.82846 40.85778,19.60666 91.25842,19.60666 50.40063,0 91.25843,-8.7782 91.25843,-19.60666 z"
     id="path5-5"
     style="stroke-width:4.73519" />
  <polygon
     fill="#325aa6"
     points="1,34.992 32.516,23 63.5,34.992 32.516,44.947 "
     id="polygon5"
     transform="matrix(4.3814074,0,0,2.8891258,556.00319,-63.141995)" />
  <ellipse
     cx="801.74597"
     cy="107.92459"
     fill="#d3d824"
     id="circle5"
     style="stroke-width:3.82262"
     rx="11.198119"
     ry="11.744148" />
</svg>
